<svg height="512pt" viewBox="0 0 512 512.00004" width="512pt" xmlns="http://www.w3.org/2000/svg"><path d="m511.996094 256c0 141.386719-114.613282 256-255.996094 256-141.386719 0-256-114.613281-256-256 0-141.382812 114.613281-255.99609375 256-255.99609375 141.382812 0 255.996094 114.61328175 255.996094 255.99609375zm0 0" fill="#93d6f4"/><path d="m136.398438 29.621094c-27.867188 104.003906-55.734376 208.007812-83.601563 312.011718 130.09375 10.917969 246.382813 74.117188 370.339844 108.273438 4.171875-3.597656 8.226562-7.328125 12.15625-11.183594 12.308593-12.078125-15.589844-57.964844-5.910157-72.3125 7.167969-10.625 52.550782 10.757813 58.085938-.921875 1.589844-3.355469 3.109375-6.753906 4.558594-10.1875 6.640625-15.769531-22.886719-42.171875-19.5-59.359375 3.171875-16.101562 29.417968-22.910156 29.417968-39.941406 0-2.4375 10.019532-4.871094 9.953126-7.296875-.050782-1.820313-.121094-3.636719-.210938-5.449219-.714844-14.558594-20.261719-24.824218-23.3125-38.644531-3.203125-14.515625 9.976562-32.539063 4.425781-46.015625-4.585937-11.132812-9.9375-21.871094-15.980469-32.152344-111.609374-34.890625-218.355468-88.195312-336.335937-98.945312-1.371094.695312-2.730469 1.40625-4.085937 2.125zm0 0" fill="#1881ee"/><path d="m191.414062 34.710938c-17.882812-3.398438-35.984374-5.984376-54.359374-7.527344-28.085938 104.816406-56.171876 209.632812-84.257813 314.449218 18.375 1.542969 36.476563 4.128907 54.363281 7.527344zm0 0" fill="#0a549a"/><path d="m492.796875 158.597656c-47.820313 15.007813-96.296875 27.636719-144.949219 39.914063 0 .003906 0 .007812-.003906.015625-42.480469-54.457032-85.0625-108.8125-132.121094-159.433594-24.988281-5.414062-49.808594-9.335938-75.238281-11.597656-1.371094.695312-2.730469 1.40625-4.085937 2.125-4.261719 15.914062-8.527344 31.824218-12.789063 47.738281 50.644531 42.988281 94.28125 92.726563 136.199219 144.082031.003906.003906.003906.007813.011718.011719-66.390624 18.574219-131.058593 40.851563-193.585937 70.027344-4.480469 16.71875-8.957031 33.4375-13.4375 50.15625 26.644531 2.203125 51.855469 6.835937 77.980469 12.496093 62.121094-21.902343 126.367187-39.175781 190.183594-55.28125.003906-.003906.003906-.007812.003906-.015624 37.058594 47.507812 74.195312 94.9375 114.316406 139.878906 21.425781-21.027344 39.167969-45.785156 52.175781-73.230469-27.527343-28.539063-53.304687-58.75-78.453125-89.558594-.007812-.007812-.007812-.007812-.011718-.015625 34.722656-9.714844 68.96875-20.457031 102.6875-32.65625-1.460938-29.851562-8.050782-58.351562-18.882813-84.65625zm0 0" fill="#efeff0"/><path d="m191.515625 34.332031c-18.011719-3.203125-36.066406-5.628906-54.460937-7.148437-4.484376 16.722656-8.964844 33.449218-13.445313 50.175781 15.6875 13.3125 30.695313 27.277344 45.195313 41.734375zm0 0" fill="#e7e7e8"/><path d="m129.886719 264.714844c-21.445313 8.359375-42.671875 17.355468-63.652344 27.144531-4.480469 16.71875-8.957031 33.433594-13.4375 50.152344 18.394531 1.523437 36.457031 4.101562 54.472656 7.304687zm0 0" fill="#e7e7e8"/><path d="m130.328125 52.277344c63.148437 53.621094 115.671875 117.707031 166.855469 182.496094 18.683594 6.875 37.289062 13.953124 55.929687 20.9375-61.476562-78.726563-121.9375-159.148438-195.988281-226.707032-7.984375-.898437-11.996094-1.269531-20.070312-1.820312-2.691407 10.039062-4.035157 15.058594-6.726563 25.09375zm0 0" fill="#ff5a57"/><path d="m185.636719 56.273438c-9.292969-9.289063-18.78125-18.394532-28.511719-27.269532-7.984375-.898437-11.996094-1.269531-20.070312-1.820312-2.691407 10.039062-4.035157 15.058594-6.726563 25.09375 15.675781 13.308594 30.695313 27.265625 45.203125 41.714844zm0 0" fill="#da3b38"/><path d="m476.460938 386.167969c-37.253907-39.066407-71.332032-81.167969-104.832032-123.578125-18.679687-6.882813-37.289062-13.957032-55.933594-20.9375 45.75 58.582031 90.933594 118.097656 141.574219 172.558594 6.996094-8.890626 13.402344-18.261719 19.191407-28.042969zm0 0" fill="#ff5a57"/><path d="m315.890625 234.921875c-88.941406 22.65625-176.167969 48.472656-259.546875 87.363281-1.351562 5.046875-2.023438 7.566406-3.378906 12.613282 13.308594.914062 26.574218 2.414062 39.757812 4.449218 76.347656-30.925781 155.417969-52.332031 235.128906-72.3125-3.984374-10.703125-7.972656-21.410156-11.960937-32.113281zm0 0" fill="#ff5a57"/><path d="m111.957031 331.773438 9.964844-37.269532c-21.425781 8.289063-45.109375 17.910156-66.082031 27.695313-1.351563 5.042969-12.839844 12.195312-14.191406 17.242187 13.808593 2.765625 24.316406 3.871094 38.410156 5.578125 5.734375-2.324219 26.136718-11.03125 31.898437-13.246093zm0 0" fill="#da3b38"/><path d="m502.117188 185.347656c-51.203126 16.566406-108.992188 32.121094-160.988282 45.242188 3.984375 10.703125 7.972656 21.40625 11.964844 32.109375 50.535156-12.871094 106.523438-28.675781 155.972656-45.539063-1.648437-10.84375-3.984375-21.460937-6.949218-31.8125zm0 0" fill="#ff5a57"/><path d="m427.734375 110.011719c-34.214844-12.070313-68.1875-25.046875-102.398437-37.117188-8.882813 33.148438-19.492188 72.75-27.976563 104.414063-61.378906-21.875-123.203125-39.867188-188.390625-45.308594-9.363281 34.9375-18.722656 69.875-28.085938 104.816406 65.1875 5.441406 127.011719 23.433594 188.390626 45.308594-8.554688 31.921875-19.265626 71.90625-28.195313 105.21875 34.214844 12.070312 68.183594 25.050781 102.398437 37.121094 8.882813-33.152344 19.492188-72.75 27.976563-104.414063 39.746094 14.164063 79.667969 26.691407 120.570313 35.246094 12.859374-30.53125 19.972656-64.082031 19.972656-99.296875 0-2.4375-.042969-4.871094-.109375-7.292969-38.039063-8.46875-75.269531-20.257812-112.347657-33.472656 8.554688-31.921875 19.265626-71.90625 28.195313-105.222656zm0 0" fill="#efeff0"/><path d="m163.363281 139.398438c-17.90625-3.332032-36.019531-5.863282-54.394531-7.398438-9.363281 34.9375-18.726562 69.878906-28.085938 104.816406 18.375 1.535156 36.488282 4.066406 54.394532 7.402344zm0 0" fill="#e7e7e8"/><path d="m511.5625 270.792969c-46.964844-10.082031-92.601562-25.339844-138.101562-42.085938 10.40625-38.84375 23.035156-85.972656 33.769531-126.03125-20.480469-7.417969-40.910157-15.027343-61.390625-22.445312-10.707032 39.953125-23.273438 86.851562-33.636719 125.53125-67.984375-25.023438-136.289063-46.746094-208.851563-52.796875-5.617187 20.960937-11.234374 41.925781-16.851562 62.890625 72.5625 6.050781 140.871094 27.773437 208.851562 52.796875-10.410156 38.84375-23.035156 85.96875-33.769531 126.03125 20.480469 7.417968 40.910157 15.023437 61.390625 22.441406 10.707032-39.953125 23.269532-86.847656 33.636719-125.527344 47.089844 17.332032 94.332031 33.074219 143.035156 43.128906 6.558594-20.320312 10.652344-41.746093 11.917969-63.933593zm0 0" fill="#ff5a57"/><path d="m157.742188 160.382812c-17.902344-3.34375-36.007813-5.886718-54.390626-7.417968-5.617187 20.960937-11.234374 41.925781-16.851562 62.890625 18.382812 1.53125 36.492188 4.074219 54.390625 7.417969zm0 0" fill="#da3b38"/><path d="m154.761719 14.992188c0 1.289062-.171875 2.601562-.523438 3.902343l-.648437 2.417969-103.609375 386.667969c-3.917969-5.300781-7.628907-10.75-11.140625-16.359375-3.769532-6.019532-7.289063-12.210938-10.558594-18.558594l89.039062-332.28125 7.949219-29.660156c2.140625-8 10.359375-12.746094 18.371094-10.609375 6.699219 1.800781 11.121094 7.851562 11.121094 14.480469zm0 0" fill="#ac825a"/><path d="m143.640625.511719-7.890625 29.441406-96.910156 361.667969c-3.769532-6.019532-7.289063-12.210938-10.558594-18.558594l89.039062-332.28125 7.949219-29.660156c2.140625-8 10.359375-12.746094 18.371094-10.609375zm0 0" fill="#816244"/></svg>